<svg width="136" height="136" viewBox="0 0 136 136" fill="none" xmlns="http://www.w3.org/2000/svg">
<path d="M69.8182 69.852C69.7852 72.0353 69.8954 74.2183 70.1478 76.3871C70.273 77.7122 70.7117 78.9884 71.4277 80.1104C72.0875 81.0132 73.0642 81.6332 74.162 81.846C75.6997 82.1656 77.2649 82.3345 78.8354 82.3502V85.4917H51.9775V82.3502C53.5536 82.3383 55.1238 82.1563 56.6607 81.8072C57.7468 81.5626 58.7216 80.9661 59.4338 80.1104C60.1745 79.0732 60.6293 77.8593 60.7524 76.5907C61.0046 74.5453 61.1148 72.4848 61.0821 70.4241V36.8178C61.1032 34.8971 61.0061 32.9769 60.7912 31.0681C60.6815 29.7976 60.2871 28.5681 59.6374 27.4709C59.0466 26.5812 58.1661 25.9235 57.1455 25.6092C55.7487 25.1958 54.3058 24.9581 52.8502 24.9014V21.7308H78.0113V24.8723C76.5644 24.8802 75.1268 25.1024 73.745 25.5317C72.7216 25.8777 71.8463 26.5615 71.2629 27.4709C70.6021 28.623 70.2078 29.9085 70.109 31.2329C69.8932 33.2681 69.796 35.3142 69.8182 37.3608V69.852Z" fill="#C1B186"/>
<path d="M65.3581 0.00212938C72.7034 -0.0605771 79.9898 1.31633 86.8056 4.05505C93.2131 6.62156 99.0687 10.3936 104.055 15.1667C109.066 20.0111 113.042 25.8229 115.74 32.2497C118.439 38.6765 119.804 45.5843 119.753 52.5544C119.846 60.3211 118.119 68.0018 114.711 74.9812C111.439 81.6257 106.885 87.5573 101.311 92.434C97.5873 95.6077 93.4557 98.2686 89.026 100.346C84.5012 102.479 79.7502 104.46 74.7729 106.29C72.4265 107.246 70.1382 108.248 67.9082 109.295C65.7584 110.3 63.7207 111.528 61.8288 112.96V113.484C62.5454 113.378 63.2671 113.31 63.991 113.28C64.9024 113.242 65.7072 113.222 66.4053 113.222C70.1205 113.19 73.8208 113.696 77.3908 114.725C80.7844 115.721 84.094 116.852 87.3195 118.119C90.5451 119.386 93.7771 120.52 97.0155 121.522C100.33 122.537 103.779 123.044 107.245 123.025C111.349 123.025 114.442 122.152 116.524 120.407C118.605 118.662 120.305 115.656 121.624 111.39H124.891C125.08 112.25 125.212 113.121 125.289 113.998C125.376 114.967 125.415 115.937 125.415 116.907C125.452 119.562 124.846 122.186 123.65 124.557C122.469 126.875 120.818 128.923 118.802 130.568C116.65 132.333 114.192 133.687 111.55 134.563C108.644 135.535 105.597 136.02 102.533 135.998C97.8581 136.049 93.2278 135.09 88.9581 133.186C84.9197 131.354 80.9896 129.292 77.1872 127.01C73.4833 124.786 69.9282 122.737 66.5216 120.863C63.4574 119.085 59.9895 118.121 56.4475 118.061C54.5475 117.979 52.6628 118.432 51.008 119.369C49.6438 120.2 48.3728 121.176 47.2169 122.278C46.0857 123.364 45.0192 124.334 44.0172 125.187C42.9784 126.071 41.6479 126.538 40.2843 126.496C37.7633 126.496 36.5028 125.4 36.5028 123.228C36.487 122.694 36.5725 122.161 36.7549 121.658C37.0265 121.09 37.4051 120.579 37.87 120.155C38.6512 119.423 39.5057 118.773 40.42 118.216C41.5545 117.469 43.1155 116.538 45.1226 115.404L62.1196 105.708C55.0941 105.506 48.1763 103.928 41.7581 101.063C35.6643 98.3655 30.1571 94.5019 25.5464 89.69C20.967 84.8862 17.347 79.2521 14.8808 73.0905C12.2726 66.6212 10.955 59.7041 11.0024 52.7289C10.9338 45.5766 12.3399 38.4868 15.1329 31.9019C17.8174 25.6084 21.7377 19.9176 26.6614 15.1667C31.6526 10.3954 37.511 6.62368 43.9203 4.05505C50.7324 1.31515 58.0159 -0.061819 65.3581 0.00212938ZM65.3581 99.3569C70.7094 99.4496 76.0124 98.3326 80.8717 96.0894C85.4554 93.9099 89.4812 90.7131 92.6426 86.7425C96.0646 82.3901 98.6159 77.4192 100.157 72.1015C101.98 65.8382 102.862 59.3388 102.775 52.8162C102.857 46.4244 101.974 40.0569 100.157 33.9284C98.6155 28.702 96.0843 23.8205 92.7008 19.5492C89.5348 15.6321 85.5063 12.4996 80.9299 10.3962C76.0362 8.20144 70.7209 7.10594 65.3581 7.18686C60.0148 7.1132 54.72 8.20856 49.8445 10.3962C45.2664 12.4968 41.2374 15.6298 38.0736 19.5492C34.6899 23.8189 32.1616 28.7011 30.6271 33.9284C28.8099 40.0569 27.9273 46.4244 28.0092 52.8162C27.9044 59.3531 28.7737 65.8691 30.5883 72.15C32.1227 77.4571 34.6495 82.4252 38.0348 86.7909C41.1768 90.781 45.2076 93.9817 49.8057 96.1379C54.6851 98.3568 59.9988 99.4567 65.3581 99.3569Z" fill="#B09C67"/>
</svg>
